<?xml version="1.0" standalone="no"?>
<!DOCTYPE svg PUBLIC "-//W3C//DTD SVG 20010904//EN"
 "http://www.w3.org/TR/2001/REC-SVG-20010904/DTD/svg10.dtd">
<svg version="1.0" xmlns="http://www.w3.org/2000/svg"
 width="250.000000pt" height="60.000000pt" viewBox="0 0 250.000000 60.000000"
 preserveAspectRatio="xMidYMid meet">

<g transform="translate(0.000000,60.000000) scale(0.100000,-0.100000)"
fill="#000000" stroke="none">
<path d="M0 300 l0 -300 1250 0 1250 0 0 300 0 300 -1250 0 -1250 0 0 -300z
m726 165 c-2 -7 -19 -16 -36 -20 -42 -9 -97 -59 -105 -95 -5 -21 -13 -30 -26
-30 -22 0 -20 18 8 73 10 21 11 32 2 49 -10 19 -9 20 7 14 11 -4 21 -8 24 -9
9 -3 100 38 100 45 0 4 5 19 12 35 l12 28 4 -39 c2 -21 1 -44 -2 -51z m372
-18 c2 -12 -3 -17 -17 -17 -12 0 -21 6 -21 13 0 31 32 34 38 4z m62 -67 c0
-83 -1 -90 -20 -90 -19 0 -20 7 -20 90 0 83 1 90 20 90 19 0 20 -7 20 -90z
m60 0 c0 -73 -3 -90 -15 -90 -12 0 -15 17 -15 90 0 73 3 90 15 90 12 0 15 -17
15 -90z m450 75 c10 -12 9 -16 -5 -21 -19 -8 -40 9 -31 25 10 15 21 14 36 -4z
m-740 -19 c0 -8 5 -27 11 -43 l12 -28 12 40 c11 39 38 57 55 38 4 -4 11 -41
15 -80 6 -63 5 -73 -9 -73 -16 0 -23 19 -29 75 -2 27 -4 26 -18 -20 -17 -59
-39 -65 -52 -15 -14 56 -27 59 -27 7 0 -41 -3 -47 -21 -47 -19 0 -20 4 -14 53
12 100 15 107 41 107 14 0 24 -6 24 -14z m418 -44 c22 -28 10 -47 -31 -50 -43
-4 -40 -22 4 -22 19 0 29 -5 29 -15 0 -11 -11 -15 -39 -15 -42 0 -56 11 -66
52 -5 21 -1 33 19 53 29 28 60 27 84 -3z m106 18 c24 -9 26 -15 26 -65 0 -48
-3 -55 -19 -55 -17 0 -20 8 -23 48 -2 26 -7 47 -13 47 -5 0 -11 -21 -13 -47
-2 -34 -7 -48 -18 -48 -11 0 -14 14 -14 59 0 48 3 60 18 64 28 8 30 7 56 -3z
m130 0 c24 -9 26 -15 26 -65 0 -48 -3 -55 -19 -55 -17 0 -20 8 -23 48 -4 61
-22 61 -26 -1 -3 -39 -6 -48 -20 -45 -13 2 -18 16 -20 56 -3 47 -1 53 20 61
30 13 32 13 62 1z m407 -11 c5 -8 9 -35 9 -61 0 -41 -3 -48 -20 -48 -17 0 -20
7 -20 45 0 33 -4 45 -15 45 -11 0 -15 -12 -15 -45 0 -38 -3 -45 -20 -45 -17 0
-20 7 -20 45 0 33 -4 45 -15 45 -11 0 -15 -12 -15 -45 0 -38 -3 -45 -20 -45
-18 0 -20 7 -20 55 0 40 4 56 17 63 25 15 143 8 154 -9z m-891 -49 c0 -53 -2
-60 -20 -60 -18 0 -20 7 -20 60 0 53 2 60 20 60 18 0 20 -7 20 -60z m570 0 c0
-53 -2 -60 -20 -60 -18 0 -20 7 -20 60 0 53 2 60 20 60 18 0 20 -7 20 -60z
m70 15 c0 -25 5 -45 10 -45 6 0 10 20 10 45 0 38 3 45 20 45 18 0 20 -7 20
-61 l0 -60 -47 3 -48 3 -3 58 c-3 52 -1 57 18 57 17 0 20 -6 20 -45z m-1010
-80 c25 15 7 -14 -22 -36 -72 -54 -71 -54 -37 12 29 58 33 62 40 41 5 -13 13
-20 19 -17z m-150 -9 c0 -49 50 -101 123 -126 24 -8 27 -14 27 -55 0 -49 -14
-53 -24 -7 -5 21 -18 32 -54 47 -26 11 -49 19 -52 18 -3 -1 -13 -5 -24 -9 -16
-6 -17 -4 -7 14 18 34 -24 112 -69 128 l-35 12 58 1 c53 1 57 0 57 -23z m311
-88 c-5 -30 -6 -31 -9 -8 -2 14 -9 28 -16 32 -7 5 -3 8 10 8 18 0 20 -5 15
-32z m77 0 c-4 -42 -34 -51 -44 -14 -7 31 1 46 27 46 17 0 20 -6 17 -32z m52
-28 c5 0 11 12 13 28 4 25 4 25 3 -3 -1 -43 -30 -41 -33 3 -3 32 -3 32 3 2 3
-16 9 -30 14 -30z m70 30 c5 0 10 8 13 18 2 9 4 1 4 -18 0 -19 -2 -29 -4 -22
-7 18 -21 15 -26 -5 -3 -10 -5 0 -5 22 0 22 2 32 5 23 2 -10 8 -18 13 -18z
m57 -22 c-2 -13 -4 -5 -4 17 -1 22 1 32 4 23 2 -10 2 -28 0 -40z m53 41 c-11
-8 -12 -12 -2 -16 19 -7 15 -43 -5 -43 -15 0 -16 2 -3 10 12 8 12 11 -3 28
-18 20 -14 32 12 32 14 0 14 -2 1 -11z m84 -8 c6 22 7 22 17 6 6 -10 8 -28 6
-40 -3 -17 -5 -16 -6 8 l-3 30 -13 -30 -13 -30 -8 30 -8 30 -7 -25 -7 -25 -1
26 c-1 35 11 44 24 18 l12 -21 7 23z m145 -13 c6 -17 9 -34 6 -36 -3 -3 -5 0
-5 6 0 7 -9 12 -20 12 -11 0 -20 -5 -20 -12 0 -6 -2 -9 -5 -6 -7 7 15 68 25
68 4 0 13 -14 19 -32z m56 3 c-14 -27 -13 -30 3 -34 13 -4 11 -5 -5 -6 -26 -1
-27 2 -12 31 9 16 8 23 -2 29 -10 6 -8 9 9 9 22 0 22 -1 7 -29z m63 22 c-21
-5 -24 -23 -5 -24 10 0 10 -2 0 -6 -18 -7 -16 -21 5 -26 13 -4 11 -5 -5 -6
-20 -1 -23 4 -23 34 0 30 3 35 23 34 16 -1 18 -2 5 -6z m45 -9 c-4 -12 -2 -15
8 -12 8 3 13 12 11 19 -2 8 0 10 5 6 4 -5 8 -23 9 -40 2 -27 0 -29 -11 -14
-16 22 -22 21 -28 0 -3 -10 -5 -1 -6 20 0 20 3 37 9 37 5 0 7 -7 3 -16z m70 0
c-4 -12 -2 -15 8 -12 8 3 13 11 11 17 -1 7 1 10 6 7 4 -2 8 -17 7 -33 0 -21
-5 -28 -20 -28 -15 0 -21 8 -23 33 -2 17 1 32 7 32 6 0 8 -7 4 -16z m101 -6
c9 -34 8 -38 -10 -31 -9 3 -20 0 -25 -8 -13 -21 -11 5 3 36 14 31 24 32 32 3z
m43 -30 c-2 -13 -4 -5 -4 17 -1 22 1 32 4 23 2 -10 2 -28 0 -40z m26 -29 c-4
-4 -6 13 -3 39 l5 47 3 -39 c2 -21 0 -42 -5 -47z m81 36 c4 -16 3 -24 0 -17
-3 6 -12 12 -20 12 -8 0 -14 -6 -15 -12 0 -8 -2 -9 -5 -2 -3 6 0 24 6 39 12
32 26 25 34 -20z m50 37 c7 -12 -5 -52 -15 -52 -5 0 -9 14 -9 30 0 28 13 40
24 22z m36 -28 c0 -31 -2 -35 -15 -24 -17 14 -21 35 -5 25 6 -3 10 3 10 14 0
12 2 21 5 21 3 0 5 -16 5 -36z"/>
<path d="M1285 379 c-10 -15 1 -23 20 -15 9 3 13 10 10 16 -8 13 -22 13 -30
-1z"/>
<path d="M932 188 c5 -32 28 -35 28 -4 0 17 -5 26 -16 26 -10 0 -14 -7 -12
-22z"/>
<path d="M1400 190 c0 -5 5 -10 10 -10 6 0 10 5 10 10 0 6 -4 10 -10 10 -5 0
-10 -4 -10 -10z"/>
<path d="M1660 170 c0 -5 7 -10 15 -10 8 0 15 5 15 10 0 6 -7 10 -15 10 -8 0
-15 -4 -15 -10z"/>
<path d="M1740 190 c0 -5 5 -10 11 -10 5 0 7 5 4 10 -3 6 -8 10 -11 10 -2 0
-4 -4 -4 -10z"/>
</g>
</svg>
